# xmcd
#
# Track frame offsets: 
#        150
#        11865
#        24940
#        38298
#        50377
#        62685
#        77297
#        89747
#        101933
#        113288
#
# Disc length: 1687 seconds
#
# Revision: 0
# Processed by: cddbd v1.5.2PL0 Copyright (c) Steve Scherf et al.
# Submitted via: ExactAudioCopyFreeDBPlugin 1.0
#
DISCID=6a06950a
DTITLE=B. B. King - Easy Listening Blues
DYEAR=1962
DGENRE=Blues
TTITLE0=Easy Listening Blues
TTITLE1=Blues for me
TTITLE2=Night long
TTITLE3=Confessin'
TTITLE4=Don't touch
TTITLE5=Slow Walk
TTITLE6=Walkin'
TTITLE7=Shoutin' The Blues
TTITLE8=Rambler
TTITLE9=Hully Gully
EXTD=
EXTT0=
EXTT1=
EXTT2=
EXTT3=
EXTT4=
EXTT5=
EXTT6=
EXTT7=
EXTT8=
EXTT9=
PLAYORDER=
